<?xml version="1.0" encoding="utf-8"?>
<!-- Generator: Adobe Illustrator 15.0.0, SVG Export Plug-In . SVG Version: 6.00 Build 0)  -->
<!DOCTYPE svg PUBLIC "-//W3C//DTD SVG 1.1//EN" "http://www.w3.org/Graphics/SVG/1.1/DTD/svg11.dtd">
<svg version="1.1" id="Layer_1" xmlns="http://www.w3.org/2000/svg" xmlns:xlink="http://www.w3.org/1999/xlink" x="0px" y="0px"
	 width="306.123px" height="64.286px" viewBox="0 0 306.123 64.286" enable-background="new 0 0 306.123 64.286"
	 xml:space="preserve">
<g>
	<g>
		<linearGradient id="SVGID_1_" gradientUnits="userSpaceOnUse" x1="56.8901" y1="7.2261" x2="32.7642" y2="68.5777">
			<stop  offset="0" style="stop-color:#A7DD45"/>
			<stop  offset="1" style="stop-color:#66C135"/>
		</linearGradient>
		<polygon fill="url(#SVGID_1_)" points="67.759,62.241 45.319,1.475 4.277,61.187 26.648,1.475 3.881,62.241 21.734,62.241 
			35.656,25.224 44.206,3.095 44.206,47.958 49.579,62.241 		"/>
		<linearGradient id="SVGID_2_" gradientUnits="userSpaceOnUse" x1="36.8247" y1="-0.6641" x2="12.699" y2="60.6871">
			<stop  offset="0" style="stop-color:#A7DD45"/>
			<stop  offset="1" style="stop-color:#66C135"/>
		</linearGradient>
		<polygon fill="url(#SVGID_2_)" points="45.319,1.475 26.648,1.475 4.277,61.187 		"/>
		<linearGradient id="SVGID_3_" gradientUnits="userSpaceOnUse" x1="34.6567" y1="4.4219" x2="-1.0964" y2="54.5465">
			<stop  offset="0" style="stop-color:#95C93E"/>
			<stop  offset="1" style="stop-color:#62B332"/>
		</linearGradient>
		<polygon fill="url(#SVGID_3_)" points="45.319,1.475 26.648,1.475 4.277,61.187 		"/>
		<polygon fill="#527521" points="35.656,25.224 44.206,47.958 44.206,47.958 44.206,3.095 		"/>
	</g>
	<g>
		<path fill="#FFFFFF" d="M70.756,19.769c0-0.333,0.113-0.614,0.343-0.843c0.229-0.229,0.509-0.344,0.843-0.344h5.936
			c0.333,0,0.614,0.115,0.844,0.344c0.229,0.229,0.343,0.511,0.343,0.843v25.554c0,1.333,0.219,2.571,0.656,3.717
			c0.437,1.146,1.052,2.145,1.843,2.998c0.791,0.855,1.739,1.532,2.843,2.031c1.103,0.5,2.343,0.75,3.717,0.75
			s2.613-0.25,3.717-0.75c1.104-0.499,2.062-1.165,2.874-2c0.812-0.832,1.437-1.821,1.875-2.967
			c0.437-1.145,0.656-2.385,0.656-3.719V19.769c0-0.333,0.114-0.614,0.343-0.843c0.229-0.229,0.509-0.344,0.843-0.344h5.936
			c0.333,0,0.615,0.115,0.844,0.344c0.229,0.229,0.343,0.511,0.343,0.843v25.991c0,2.374-0.448,4.603-1.343,6.685
			c-0.896,2.084-2.124,3.905-3.687,5.467c-1.562,1.562-3.405,2.791-5.529,3.687c-2.125,0.896-4.416,1.343-6.873,1.343
			c-2.458,0-4.738-0.447-6.841-1.343c-2.104-0.896-3.936-2.125-5.498-3.687s-2.791-3.383-3.686-5.467
			c-0.896-2.082-1.343-4.311-1.343-6.685V19.769z"/>
		<path fill="#FFFFFF" d="M122.457,39.885l-12.496-19.555c-0.25-0.416-0.271-0.812-0.062-1.187c0.208-0.375,0.583-0.562,1.125-0.562
			h7.247c0.25,0,0.458,0.062,0.625,0.188c0.167,0.125,0.292,0.25,0.376,0.375l7.996,13.245h0.063l8.122-13.245
			c0.082-0.125,0.208-0.25,0.375-0.375c0.166-0.125,0.375-0.188,0.625-0.188h7.248c0.541,0,0.916,0.188,1.125,0.562
			c0.208,0.375,0.188,0.771-0.062,1.187l-12.558,19.555l12.996,20.682c0.25,0.458,0.27,0.865,0.062,1.217
			c-0.209,0.355-0.583,0.531-1.125,0.531h-6.748c-0.25,0-0.468-0.062-0.656-0.188c-0.188-0.124-0.323-0.248-0.406-0.375
			l-8.934-14.307h-0.188l-8.809,14.307c-0.084,0.127-0.219,0.251-0.407,0.375c-0.187,0.125-0.405,0.188-0.656,0.188h-6.748
			c-0.584,0-0.979-0.188-1.187-0.562c-0.208-0.375-0.188-0.769,0.062-1.186L122.457,39.885z"/>
		<path fill="#FFFFFF" d="M151.582,19.769c0-0.333,0.113-0.614,0.342-0.843c0.227-0.229,0.506-0.344,0.837-0.344h5.766
			c0.329,0,0.607,0.115,0.835,0.344c0.228,0.229,0.342,0.511,0.342,0.843v41.36c0,0.334-0.114,0.616-0.342,0.844
			c-0.228,0.229-0.506,0.343-0.835,0.343h-5.766c-0.331,0-0.611-0.113-0.837-0.343c-0.229-0.228-0.342-0.51-0.342-0.844V19.769z"/>
		<path fill="#FFFFFF" d="M168.908,19.769c0-0.333,0.115-0.614,0.343-0.843c0.23-0.229,0.51-0.344,0.843-0.344h5.749
			c0.333,0,0.614,0.115,0.844,0.344c0.228,0.228,0.343,0.51,0.343,0.841v34.989h15.932c0.334,0,0.614,0.117,0.844,0.347
			c0.23,0.232,0.344,0.514,0.344,0.85v5.166c0,0.336-0.114,0.62-0.344,0.852c-0.229,0.231-0.51,0.346-0.844,0.346h-22.867
			c-0.333,0-0.613-0.113-0.843-0.343c-0.228-0.228-0.343-0.51-0.343-0.844V19.769z"/>
		<path fill="#FFFFFF" d="M200.458,19.769c0-0.333,0.113-0.614,0.341-0.843c0.227-0.229,0.507-0.344,0.838-0.344h5.766
			c0.33,0,0.608,0.115,0.837,0.344c0.227,0.229,0.342,0.511,0.342,0.843v41.36c0,0.334-0.115,0.616-0.342,0.844
			c-0.229,0.229-0.507,0.343-0.837,0.343h-5.766c-0.331,0-0.611-0.113-0.838-0.343c-0.228-0.228-0.341-0.51-0.341-0.844V19.769z"/>
		<path fill="#FFFFFF" d="M216.179,19.769c0-0.333,0.114-0.614,0.344-0.843c0.229-0.229,0.51-0.344,0.844-0.344h5.936
			c0.332,0,0.613,0.115,0.844,0.344c0.228,0.229,0.343,0.511,0.343,0.843v25.554c0,1.333,0.219,2.571,0.656,3.717
			c0.437,1.146,1.052,2.145,1.844,2.998c0.79,0.855,1.737,1.532,2.843,2.031c1.102,0.5,2.342,0.75,3.718,0.75
			c1.374,0,2.613-0.25,3.716-0.75c1.104-0.499,2.062-1.165,2.876-2c0.811-0.832,1.437-1.821,1.873-2.967
			c0.438-1.145,0.655-2.385,0.655-3.719V19.769c0-0.333,0.115-0.614,0.345-0.843c0.228-0.229,0.51-0.344,0.843-0.344h5.936
			c0.333,0,0.615,0.115,0.844,0.344c0.229,0.229,0.343,0.511,0.343,0.843v25.991c0,2.374-0.447,4.603-1.343,6.685
			c-0.897,2.084-2.124,3.905-3.687,5.467c-1.561,1.562-3.404,2.791-5.529,3.687c-2.123,0.896-4.415,1.343-6.871,1.343
			c-2.46,0-4.739-0.447-6.843-1.343s-3.936-2.125-5.497-3.687c-1.563-1.562-2.791-3.383-3.687-5.467
			c-0.897-2.082-1.344-4.311-1.344-6.685V19.769z"/>
		<path fill="#FFFFFF" d="M262.424,18.894c0.042-0.25,0.155-0.469,0.342-0.656c0.188-0.188,0.447-0.281,0.784-0.281h0.998
			c0.499,0,0.854,0.209,1.062,0.625l13.745,29.489h0.187l13.746-29.489c0.209-0.416,0.562-0.625,1.062-0.625h1
			c0.333,0,0.592,0.093,0.78,0.281c0.187,0.188,0.303,0.406,0.344,0.656l7.372,41.985c0.083,0.457,0.02,0.812-0.188,1.061
			c-0.208,0.251-0.521,0.375-0.937,0.375h-5.685c-0.292,0-0.542-0.103-0.75-0.312c-0.21-0.21-0.355-0.415-0.438-0.626L292.162,37.7
			h-0.187l-10.934,24.553c-0.166,0.459-0.522,0.688-1.062,0.688h-1.125c-0.498,0-0.854-0.229-1.061-0.688L266.734,37.7h-0.188
			l-3.624,23.678c-0.041,0.211-0.167,0.416-0.374,0.626c-0.21,0.209-0.458,0.312-0.75,0.312h-5.623
			c-0.917,0-1.312-0.478-1.188-1.436L262.424,18.894z"/>
	</g>
</g>
</svg>
