<svg width="24" height="24" viewBox="0 0 24 24" fill="none" xmlns="http://www.w3.org/2000/svg">
<path d="M10.328 10.0681C9.644 10.0681 9.104 10.6681 9.104 11.4001C9.104 12.1321 9.656 12.7321 10.328 12.7321C11.012 12.7321 11.552 12.1321 11.552 11.4001C11.564 10.6681 11.012 10.0681 10.328 10.0681ZM14.708 10.0681C14.024 10.0681 13.484 10.6681 13.484 11.4001C13.484 12.1321 14.036 12.7321 14.708 12.7321C15.392 12.7321 15.932 12.1321 15.932 11.4001C15.932 10.6681 15.392 10.0681 14.708 10.0681Z" fill="#60605C"/>
<path d="M20.54 0H4.46C3.104 0 2 1.104 2 2.472V18.696C2 20.064 3.104 21.168 4.46 21.168H18.068L17.432 18.948L18.968 20.376L20.42 21.72L23 24V2.472C23 1.104 21.896 0 20.54 0ZM15.908 15.672C15.908 15.672 15.476 15.156 15.116 14.7C16.688 14.256 17.288 13.272 17.288 13.272C16.796 13.596 16.328 13.824 15.908 13.98C15.308 14.232 14.732 14.4 14.168 14.496C13.016 14.712 11.96 14.652 11.06 14.484C10.376 14.352 9.788 14.16 9.296 13.968C9.02 13.86 8.72 13.728 8.42 13.56C8.384 13.536 8.348 13.524 8.312 13.5C8.288 13.488 8.276 13.476 8.264 13.464C8.048 13.344 7.928 13.26 7.928 13.26C7.928 13.26 8.504 14.22 10.028 14.676C9.668 15.132 9.224 15.672 9.224 15.672C6.572 15.588 5.564 13.848 5.564 13.848C5.564 9.984 7.292 6.852 7.292 6.852C9.02 5.556 10.664 5.592 10.664 5.592L10.784 5.736C8.624 6.36 7.628 7.308 7.628 7.308C7.628 7.308 7.892 7.164 8.336 6.96C9.62 6.396 10.64 6.24 11.06 6.204C11.132 6.192 11.192 6.18 11.264 6.18C11.996 6.084 12.824 6.06 13.688 6.156C14.828 6.288 16.052 6.624 17.3 7.308C17.3 7.308 16.352 6.408 14.312 5.784L14.48 5.592C14.48 5.592 16.124 5.556 17.852 6.852C17.852 6.852 19.58 9.984 19.58 13.848C19.58 13.848 18.56 15.588 15.908 15.672V15.672Z" fill="#60605C"/>
</svg>
