<svg width="24" height="24" viewBox="0 0 24 24" fill="none" xmlns="http://www.w3.org/2000/svg">
<path fill-rule="evenodd" clip-rule="evenodd" d="M23.9998 22.6753C23.9998 23.4069 23.4067 24 22.6753 24L16.5595 24V14.7059H19.6791L20.1462 11.0838H16.5595V8.77132C16.5595 7.72265 16.8507 7.00801 18.3545 7.00801L20.2725 7.00717V3.76755C19.9408 3.72341 18.8023 3.62479 17.4777 3.62479C14.7123 3.62479 12.8191 5.31277 12.8191 8.41261V11.0838H9.69151V14.7059H12.8191V24L1.32461 24C0.592832 24 0 23.4068 0 22.6753V1.32461C0 0.592925 0.592925 0 1.32461 0H22.6753C23.4068 0 23.9998 0.592925 23.9998 1.32461V22.6753Z" fill="#60605C"/>
</svg>
