<svg width="24" height="24" viewBox="0 0 24 24" fill="none" xmlns="http://www.w3.org/2000/svg">
<path fill-rule="evenodd" clip-rule="evenodd" d="M12 0C5.37017 0 0 5.37017 0 12C0 17.3039 3.44015 21.7974 8.20626 23.3886C8.80295 23.4991 9.02394 23.1308 9.02394 22.8066C9.02394 22.5193 9.01657 21.768 9.00921 20.7661C5.67219 21.488 4.96501 19.1602 4.96501 19.1602C4.41989 17.7753 3.63168 17.3996 3.63168 17.3996C2.54144 16.6556 3.71271 16.6703 3.71271 16.6703C4.91344 16.7587 5.55433 17.9079 5.55433 17.9079C6.62247 19.7422 8.36096 19.2118 9.04604 18.9024C9.15654 18.1289 9.46593 17.5985 9.80479 17.2965C7.14549 17.0018 4.34622 15.9705 4.34622 11.3738C4.34622 10.0626 4.81031 8.99447 5.58379 8.15469C5.45856 7.8453 5.04604 6.62983 5.69429 4.97974C5.69429 4.97974 6.7035 4.65562 8.99447 6.20994C9.95212 5.94475 10.9761 5.81215 12 5.80479C13.0166 5.81215 14.0479 5.94475 15.0055 6.20994C17.2965 4.65562 18.3057 4.97974 18.3057 4.97974C18.9613 6.62983 18.5488 7.85267 18.4236 8.15469C19.1897 8.99447 19.6538 10.0626 19.6538 11.3738C19.6538 15.9853 16.8471 16.9945 14.1731 17.2965C14.6004 17.6648 14.9908 18.4015 14.9908 19.5212C14.9908 21.1271 14.9761 22.4162 14.9761 22.814C14.9761 23.1381 15.1897 23.5064 15.8011 23.3886C20.5672 21.7974 24 17.3039 24 12.0074C24 5.37016 18.6298 0 12 0Z" fill="#60605C"/>
</svg>
