<svg width="24" height="24" viewBox="0 0 24 24" fill="none" xmlns="http://www.w3.org/2000/svg">
<path d="M23.8484 5.83096L16.2419 2.02773C16.2076 2.01056 16.1693 2.00264 16.1323 2.00132C16.1297 2.00132 16.127 2 16.1244 2C16.032 2 15.9395 2.04622 15.8906 2.12677L11.2026 9.74512L16.436 18.2496L23.9223 6.08451C23.9765 5.99603 23.9435 5.8785 23.8484 5.83096Z" fill="#60605C"/>
<path d="M8.71631 7.06836V15.2783L16.0138 18.9257L8.71631 7.06836Z" fill="#60605C"/>
<path d="M16.6338 19.2399L23.3343 22.5902C23.7001 22.7724 23.9999 22.5875 23.9999 22.1795V7.27026L16.6338 19.2399Z" fill="#60605C"/>
<path d="M7.90623 5.86945L0.887421 2.3607L0.44371 2.13885C0.380323 2.10715 0.319577 2.09131 0.264113 2.09131C0.1862 2.09131 0.120171 2.12168 0.072631 2.17847C0.0277317 2.23393 0 2.31316 0 2.41221V18.4307C0 18.7027 0.199406 19.0263 0.44371 19.1477L7.33971 22.5957C7.43611 22.6433 7.52723 22.6657 7.60911 22.6657C7.84153 22.6657 8.00396 22.4861 8.00396 22.1837V6.02924C8.00528 5.96189 7.96698 5.89982 7.90623 5.86945Z" fill="#60605C"/>
</svg>
