<svg width="24" height="24" viewBox="0 0 24 24" fill="none" xmlns="http://www.w3.org/2000/svg">
<path d="M0.42391 11.5716L5.95399 13.6356L8.09448 20.5193C8.23144 20.9602 8.77056 21.1232 9.1284 20.8306L12.211 18.3176C12.5341 18.0544 12.9943 18.0412 13.332 18.2864L18.8918 22.3229C19.2746 22.6012 19.817 22.3914 19.913 21.9288L23.9858 2.33756C24.0906 1.83228 23.5942 1.41076 23.113 1.59684L0.417431 10.3521C-0.142649 10.5681 -0.13777 11.3611 0.42391 11.5716ZM7.74951 12.5368L18.5574 5.88028C18.7516 5.761 18.9514 6.02364 18.7846 6.17836L9.86504 14.4696C9.55152 14.7614 9.34928 15.152 9.292 15.5759L8.98816 17.8276C8.94792 18.1282 8.5256 18.158 8.44264 17.8671L7.27407 13.7611C7.14023 13.2928 7.33527 12.7925 7.74951 12.5368Z" fill="#60605C"/>
</svg>
