<svg width="24" height="24" viewBox="0 0 24 24" fill="none" xmlns="http://www.w3.org/2000/svg">
<path d="M24 4.29847C23.1116 4.6933 22.1669 4.96122 21.1657 5.07403C22.181 4.46768 22.9706 3.49471 23.3372 2.35253C22.3784 2.91657 21.3349 3.3255 20.2068 3.55112C19.3043 2.59224 18.0211 2 16.611 2C13.8895 2 11.6898 4.21387 11.6898 6.93537C11.6898 7.3161 11.7321 7.69683 11.8167 8.06345C7.72738 7.85194 4.08931 5.89189 1.66392 2.91657C1.24089 3.64982 1.00117 4.49589 1.00117 5.39835C1.00117 7.10458 1.87544 8.61339 3.20094 9.50176C2.39718 9.47356 1.63572 9.24794 0.972972 8.88131V8.93772C0.972972 11.3208 2.6651 13.3231 4.92127 13.7744C4.51234 13.8872 4.07521 13.9436 3.62397 13.9436C3.29965 13.9436 3.00352 13.9154 2.6933 13.859C3.31375 15.819 5.13278 17.2432 7.29025 17.2855C5.59812 18.611 3.48296 19.4007 1.17039 19.4007C0.775558 19.4007 0.380729 19.3725 0 19.3302C2.18566 20.7262 4.76616 21.5441 7.55817 21.5441C16.6251 21.5441 21.5746 14.0282 21.5746 7.52761C21.5746 7.3161 21.5746 7.10458 21.5605 6.89307C22.5053 6.15981 23.3373 5.28555 24 4.29847Z" fill="#60605C"/>
</svg>
